<svg width="513" height="214" viewBox="0 0 513 214" fill="none" xmlns="http://www.w3.org/2000/svg">
<path d="M505.774 160.351C505.774 160.769 505.685 161.108 505.506 161.369C505.336 161.63 505.148 161.843 504.942 162.005C504.692 162.182 504.425 162.32 504.139 162.419L505.998 165.24H504.685L502.933 162.631H502.058V165.24H500.861V158.071H503.371C503.692 158.071 503.998 158.134 504.29 158.261C504.582 158.381 504.835 158.547 505.047 158.76C505.269 158.965 505.443 159.206 505.572 159.482C505.707 159.756 505.774 160.047 505.774 160.351ZM503.371 161.549C503.706 161.549 503.991 161.433 504.226 161.2C504.46 160.966 504.578 160.683 504.578 160.351C504.578 160.019 504.46 159.735 504.226 159.502C503.991 159.269 503.706 159.153 503.371 159.153H502.058V161.549H503.371ZM497.796 161.656C497.796 162.469 497.942 163.226 498.234 163.925C498.526 164.625 498.913 165.235 499.398 165.75C499.89 166.266 500.459 166.674 501.107 166.97C501.755 167.267 502.438 167.416 503.157 167.416C503.869 167.416 504.547 167.267 505.187 166.97C505.827 166.674 506.394 166.266 506.885 165.75C507.383 165.235 507.778 164.625 508.07 163.925C508.362 163.226 508.508 162.469 508.508 161.656C508.508 160.842 508.362 160.085 508.07 159.386C507.778 158.685 507.383 158.077 506.885 157.562C506.394 157.045 505.827 156.638 505.187 156.341C504.547 156.044 503.869 155.895 503.157 155.895C502.445 155.895 501.762 156.044 501.107 156.341C500.459 156.638 499.89 157.045 499.398 157.562C498.913 158.077 498.526 158.685 498.234 159.386C497.942 160.085 497.796 160.842 497.796 161.656ZM509.822 161.656C509.822 162.638 509.643 163.551 509.288 164.392C508.932 165.235 508.452 165.97 507.847 166.598C507.241 167.228 506.532 167.72 505.72 168.073C504.917 168.427 504.062 168.604 503.157 168.604C502.254 168.604 501.395 168.427 500.584 168.073C499.772 167.72 499.064 167.228 498.459 166.598C497.852 165.97 497.373 165.235 497.016 164.392C496.661 163.551 496.482 162.638 496.482 161.656C496.482 160.687 496.661 159.778 497.016 158.93C497.373 158.081 497.852 157.342 498.459 156.713C499.064 156.083 499.772 155.591 500.584 155.239C501.395 154.884 502.254 154.707 503.157 154.707C504.062 154.707 504.917 154.884 505.72 155.239C506.532 155.591 507.241 156.083 507.847 156.713C508.452 157.342 508.932 158.081 509.288 158.93C509.643 159.778 509.822 160.687 509.822 161.656Z" fill="#8687FF"/>
<path d="M505.774 160.351C505.774 160.769 505.685 161.108 505.508 161.369C505.337 161.63 505.148 161.843 504.942 162.005C504.692 162.182 504.425 162.32 504.141 162.419L505.998 165.24H504.685L502.933 162.631H502.058V165.24H500.861V158.071H503.371C503.692 158.071 503.998 158.134 504.29 158.261C504.582 158.381 504.835 158.547 505.049 158.76C505.269 158.965 505.443 159.206 505.572 159.482C505.707 159.756 505.774 160.047 505.774 160.351ZM503.371 161.549C503.706 161.549 503.991 161.433 504.226 161.2C504.46 160.966 504.578 160.683 504.578 160.351C504.578 160.019 504.46 159.735 504.226 159.502C503.991 159.269 503.706 159.153 503.371 159.153H502.058V161.549H503.371ZM497.796 161.656C497.796 162.469 497.942 163.226 498.234 163.925C498.526 164.625 498.915 165.235 499.398 165.75C499.89 166.266 500.459 166.674 501.107 166.97C501.755 167.267 502.438 167.416 503.157 167.416C503.87 167.416 504.547 167.267 505.187 166.97C505.827 166.674 506.394 166.266 506.885 165.75C507.383 165.235 507.778 164.625 508.071 163.925C508.362 163.226 508.508 162.469 508.508 161.656C508.508 160.842 508.362 160.085 508.071 159.386C507.778 158.685 507.383 158.077 506.885 157.562C506.394 157.045 505.827 156.638 505.187 156.341C504.547 156.044 503.87 155.895 503.157 155.895C502.445 155.895 501.762 156.044 501.107 156.341C500.459 156.638 499.89 157.045 499.398 157.562C498.915 158.077 498.526 158.685 498.234 159.386C497.942 160.085 497.796 160.842 497.796 161.656ZM509.822 161.656C509.822 162.638 509.645 163.551 509.288 164.392C508.932 165.235 508.452 165.97 507.847 166.598C507.241 167.228 506.533 167.72 505.72 168.073C504.917 168.427 504.062 168.604 503.157 168.604C502.254 168.604 501.395 168.427 500.584 168.073C499.772 167.72 499.064 167.228 498.459 166.598C497.854 165.97 497.373 165.235 497.017 164.392C496.661 163.551 496.482 162.638 496.482 161.656C496.482 160.687 496.661 159.778 497.017 158.93C497.373 158.081 497.854 157.342 498.459 156.713C499.064 156.083 499.772 155.591 500.584 155.239C501.395 154.884 502.254 154.707 503.157 154.707C504.062 154.707 504.917 154.884 505.72 155.239C506.533 155.591 507.241 156.083 507.847 156.713C508.452 157.342 508.932 158.081 509.288 158.93C509.645 159.778 509.822 160.687 509.822 161.656Z" fill="#8687FF"/>
<path d="M65.3427 171.877C99.9572 171.877 127.743 144.982 127.743 110.134C127.743 75.2867 99.9572 48.3909 65.3427 48.3909C30.7283 48.3909 3.17798 75.2867 3.17798 110.134C3.17798 144.982 30.7283 171.877 65.3427 171.877ZM65.3427 142.409C47.4469 142.409 33.5539 129.078 33.5539 110.134C33.5539 91.1903 47.4469 77.8594 65.3427 77.8594C83.4742 77.8594 97.3671 91.1903 97.3671 110.134C97.3671 129.078 83.4742 142.409 65.3427 142.409Z" fill="#8687FF"/>
<path d="M201.152 48.3909C183.963 48.3909 171.482 54.7055 163.005 65.4639V51.6652H132.629V203.014L163.005 212.906V154.805C171.482 165.564 183.963 171.877 201.152 171.877C232.704 171.877 258.607 144.982 258.607 110.134C258.607 75.2867 232.704 48.3909 201.152 48.3909ZM195.5 143.111C176.897 143.111 163.005 129.78 163.005 110.134C163.005 90.4887 176.897 77.1578 195.5 77.1578C214.338 77.1578 228.23 90.4887 228.23 110.134C228.23 129.78 214.338 143.111 195.5 143.111Z" fill="#8687FF"/>
<path d="M372.099 168.604L323.356 109.433L370.686 51.6652H334.424L293.922 103.118V17.255H263.546V168.604H293.922V115.514L336.779 168.604H372.099Z" fill="#8687FF"/>
<path d="M387.026 37.6326C397.387 37.6326 405.864 29.2129 405.864 19.1562C405.864 9.09952 397.387 0.446075 387.026 0.446075C376.901 0.446075 368.423 9.09952 368.423 19.1562C368.423 29.2129 376.901 37.6326 387.026 37.6326ZM371.955 168.604H402.332V51.6652H371.955V168.604Z" fill="#8687FF"/>
<path d="M486.883 80.6659V51.6652H460.274V18.9223L429.898 28.0436V51.6652H409.413V80.6659H429.898V129.312C429.898 160.885 444.262 173.281 486.883 168.604V141.24C469.458 142.176 460.274 141.942 460.274 129.312V80.6659H486.883Z" fill="#8687FF"/>
</svg>
